<?xml version="1.0" encoding="UTF-8"?>
<svg id="_レイヤー_2" data-name="レイヤー 2" xmlns="http://www.w3.org/2000/svg" width="400" height="100" viewBox="0 0 400 100">
  <defs>
    <style>
      .cls-1 {
        fill: #00467e;
      }
    </style>
  </defs>
  <g id="_レイヤー_2-2" data-name="レイヤー 2">
    <g>
      <path id="_outline_" data-name="&amp;lt;outline&amp;gt;" class="cls-1" d="M83.197,79.122c0-.184,.122-.307,.306-.307h3.649c.245,0,.398,.092,.49,.307l5.273,11.895h.123l5.181-11.895c.092-.215,.245-.307,.491-.307h3.586c.184,0,.307,.123,.307,.307v20.234c0,.184-.123,.307-.307,.307h-3.464c-.184,0-.306-.123-.306-.307v-11.742h-.123l-3.863,8.799c-.123,.275-.307,.398-.582,.398h-2.116c-.276,0-.46-.123-.582-.398l-3.863-8.799h-.123v11.742c0,.184-.122,.307-.306,.307h-3.465c-.184,0-.306-.123-.306-.307v-20.234Zm24.621,0c0-.184,.122-.307,.306-.307h13.367c.184,0,.307,.123,.307,.307v3.28c0,.184-.123,.307-.307,.307h-8.983c-.122,0-.184,.061-.184,.184v4.139c0,.122,.062,.184,.184,.184h7.481c.184,0,.307,.122,.307,.306v3.25c0,.184-.123,.306-.307,.306h-7.481c-.122,0-.184,.062-.184,.184v4.323c0,.123,.062,.185,.184,.185h8.983c.184,0,.307,.122,.307,.306v3.28c0,.184-.123,.307-.307,.307h-13.367c-.184,0-.306-.123-.306-.307v-20.234Zm22.535,20.541c-.184,0-.307-.123-.307-.307v-16.34c0-.122-.062-.184-.184-.184h-5.273c-.184,0-.306-.122-.306-.307v-3.403c0-.184,.122-.307,.306-.307h15.421c.185,0,.307,.123,.307,.307v3.403c0,.185-.122,.307-.307,.307h-5.272c-.123,0-.184,.062-.184,.184v16.34c0,.184-.123,.307-.307,.307h-3.893Zm25.234,0c-.276,0-.368-.092-.46-.307l-3.586-7.634h-2.791c-.122,0-.184,.062-.184,.184v7.45c0,.184-.122,.307-.306,.307h-3.894c-.184,0-.306-.123-.306-.307v-20.234c0-.184,.122-.307,.306-.307h8.309c4.262,0,7.082,2.667,7.082,6.469,0,2.667-1.411,4.783-3.71,5.794l4.108,8.216c.092,.185,0,.368-.215,.368h-4.353Zm-.337-14.378c0-1.564-1.104-2.575-2.821-2.575h-3.679c-.122,0-.184,.061-.184,.184v4.813c0,.122,.062,.184,.184,.184h3.679c1.718,0,2.821-1.012,2.821-2.606Zm8.586,9.657c-.46-1.441-.583-2.606-.583-5.702s.123-4.262,.583-5.702c1.073-3.373,3.955-5.059,7.603-5.059s6.53,1.686,7.603,5.059c.46,1.441,.582,2.606,.582,5.702s-.122,4.261-.582,5.702c-1.073,3.373-3.955,5.059-7.603,5.059s-6.53-1.686-7.603-5.059Zm10.883-1.226c.245-.736,.337-1.747,.337-4.476s-.091-3.74-.337-4.476c-.46-1.441-1.564-2.299-3.28-2.299s-2.82,.858-3.28,2.299c-.245,.736-.338,1.747-.338,4.476s.092,3.74,.338,4.476c.46,1.441,1.564,2.299,3.28,2.299s2.82-.858,3.28-2.299Zm18.03-14.593c0-.184,.122-.307,.306-.307h3.649c.245,0,.398,.092,.49,.307l5.273,11.895h.123l5.181-11.895c.092-.215,.245-.307,.491-.307h3.586c.184,0,.307,.123,.307,.307v20.234c0,.184-.123,.307-.307,.307h-3.464c-.184,0-.306-.123-.306-.307v-11.742h-.123l-3.863,8.799c-.123,.275-.307,.398-.582,.398h-2.116c-.276,0-.46-.123-.582-.398l-3.863-8.799h-.123v11.742c0,.184-.122,.307-.306,.307h-3.465c-.184,0-.306-.123-.306-.307v-20.234Zm24.529,12.876v-12.876c0-.184,.123-.307,.307-.307h3.893c.184,0,.307,.123,.307,.307v12.999c0,2.484,1.379,3.893,3.495,3.893,2.084,0,3.464-1.41,3.464-3.893v-12.999c0-.184,.122-.307,.306-.307h3.893c.185,0,.307,.123,.307,.307v12.876c0,5.181-3.311,8.001-7.971,8.001-4.691,0-8.002-2.82-8.002-8.001Zm20.083,5.15c-.122-.122-.184-.337-.03-.521l2.33-2.667c.122-.153,.307-.153,.46-.031,1.38,1.104,3.25,2.146,5.457,2.146,2.177,0,3.403-1.011,3.403-2.483,0-1.227-.735-1.993-3.219-2.331l-1.104-.153c-4.231-.582-6.592-2.575-6.592-6.254,0-3.833,2.882-6.377,7.388-6.377,2.76,0,5.335,.828,7.082,2.177,.184,.122,.215,.245,.062,.46l-1.871,2.79c-.122,.153-.276,.184-.429,.092-1.594-1.043-3.127-1.594-4.844-1.594-1.839,0-2.79,.951-2.79,2.269,0,1.195,.858,1.962,3.25,2.299l1.104,.153c4.293,.583,6.561,2.545,6.561,6.315s-2.79,6.561-8.185,6.561c-3.25,0-6.408-1.288-8.033-2.851Zm20.483-18.026c0-.184,.122-.307,.306-.307h13.367c.184,0,.307,.123,.307,.307v3.28c0,.184-.123,.307-.307,.307h-8.983c-.122,0-.184,.061-.184,.184v4.139c0,.122,.062,.184,.184,.184h7.481c.184,0,.307,.122,.307,.306v3.25c0,.184-.123,.306-.307,.306h-7.481c-.122,0-.184,.062-.184,.184v4.323c0,.123,.062,.185,.184,.185h8.983c.184,0,.307,.122,.307,.306v3.28c0,.184-.123,.307-.307,.307h-13.367c-.184,0-.306-.123-.306-.307v-20.234Zm18.457,12.876v-12.876c0-.184,.123-.307,.307-.307h3.893c.184,0,.307,.123,.307,.307v12.999c0,2.484,1.379,3.893,3.495,3.893,2.084,0,3.464-1.41,3.464-3.893v-12.999c0-.184,.122-.307,.306-.307h3.893c.185,0,.307,.123,.307,.307v12.876c0,5.181-3.311,8.001-7.971,8.001-4.691,0-8.002-2.82-8.002-8.001Zm21.096-12.876c0-.184,.122-.307,.306-.307h3.649c.245,0,.398,.092,.49,.307l5.273,11.895h.123l5.181-11.895c.092-.215,.245-.307,.491-.307h3.586c.184,0,.307,.123,.307,.307v20.234c0,.184-.123,.307-.307,.307h-3.464c-.184,0-.306-.123-.306-.307v-11.742h-.123l-3.863,8.799c-.123,.275-.307,.398-.582,.398h-2.116c-.276,0-.46-.123-.582-.398l-3.863-8.799h-.123v11.742c0,.184-.122,.307-.306,.307h-3.465c-.184,0-.306-.123-.306-.307v-20.234Z"/>
      <path class="cls-1" d="M45.634,22.739c.071-.604,.071-1.185,.927-1.515,.858-.322,2.96-1.045,3.49-1.116,.524-.064,1.319-.064,1.252,.925-.052,.787-.656,7.107-.859,7.83-.198,.723-.655,1.78-1.51,1.845-.858,.071-2.766,.131-3.228,.071-.46-.071-.46-.266-.46-.99s.33-6.447,.389-7.05Zm-23.7,25.886c-.201,3.354-.392,5.59,1.257,8.354,1.337,2.254,5.986,2.566,8.095,2.632,1.575,.055,16.002,.264,20.734-.59,6.898-1.236,7.316-6.976,7.642-8.497,.326-1.514,.859-4.936,.99-6.184,.132-1.245-.531-1.184-1.191-1.319-.653-.128-1.38-.198-3.288-.66-1.906-.458-2.174-.722-2.5-.915-.33-.203-.722-.672-1.188-.672s-.465,.403-.524,.799c-.064,.394-.398,3.424-.922,6.319-.529,2.906-1.976,2.632-3.227,2.767-1.455,.153-12.115,.389-15.604-.135-1.908-.281-1.518-1.844-1.518-2.368,0,0,1.255-19.622,1.319-20.806,.066-1.181,.877-1.447,2.417-2.021,.986-.367,1.465-.61,2.057-.345,.592,.266,.241,2.497,.2,3.025-.262,3.422-1.313,16.793-1.448,17.716-.134,.92,.196,.856,.918,.856,.727,0,5.937,.142,7.043,0,.99-.139,1.061-.589,1.061-1.585,0-.663,.724-11.722,.786-12.576,.031-.394,.2-.724,.529-.66,.33,.063,.33,.33,.457,.854,.135,.532,.53,4.813,.53,5.732,0,.925,.663,1.181,1.116,1.181,1.582,0,2.837-.149,5.071-.394,3.689-.387,4.611-1.776,5.333-3.88,1.212-3.523,1.316-9.279,1.582-13.762,.267-4.476,.679-6.976,.788-7.373,.333-1.184,.592-1.319,.793-1.648,.196-.33,.326-.596-.592-1.046,0,0-4.28-2.707-4.875-3.1-.594-.393-.724-.097-.945,.33-.724,1.383-1.687,1.709-2.279,1.908-.592,.191-4.082,1.192-5.071,1.447-.986,.266-.922-.585-.986-1.319-.068-.724,.333-5.529,.462-6.848,.163-1.641,1.247-1.57,1.644-1.964,.148-.154,.196-.925,.196-1.192,0-.259-1.338-.202-1.338-.202h-8.141c-.856,0-.924,.266-.986,1.255l-.859,12.838c-.052,.791-.592,.994-.99,1.121,0,0-1.385,.378-2.563,.727-1.342,.386-1.125-1.083-1.125-1.668,0,0,.269-3.801,.46-5.577,.196-1.774,.533-1.515,.99-1.845,.196-.139,.66-.386,.66-.854,0-.588-1.187-.588-1.187-.588,0,0-7.503,.123-8.366,.123-.851,0-.851,.66-.851,1.391,0,0-.524,9.214-.66,11.061-.13,1.84-1.248,1.642-2.234,1.777-.951,.131-.722-1.124-.592-1.844,.128-.731,.262-1.589,.326-2.246,.064-.66-.064-.787-.592-.787s-.66,.33-1.116,.787c-.701,.702-.97,.671-2.043,.702-1.113,.033-1.12-.765-1.113-1.754l.641-10.398c.142-1.844,1.264-2.432,1.594-2.635,.326-.191,.266-.723,.127-.989-.127-.259-.528-.192-.854-.192H9.622c-.663,.064-.967,.394-.967,1.398l-.861,13.411c-.08,.727-.148,1.256-1.132,1.256-.462,0-1.976,.063-2.835-.068-.858-.135-.858,.503-.922,.904l-1.446,8.703s-.33,1.255,.33,1.255c1.646,0,.851-1.716,3.092-1.716h1.057c.653,0,1.174,.139,1.154,1.056l-1.028,16.66c-.127,1.448-1.248,1.58-1.903,1.715-.665,.127-2.898,.587-3.495,.587s-.7,.403-.66,.724c.267,2.047,.529,7.842,.529,8.823,0,.99-.127,2.043,.592,1.976,.727-.061,.66-1.377,1.446-2.043,.792-.648,5.668-1.705,7.707-2.365,1.054-.337,7.837-2.771,8.359-2.962,.531-.201,.925-.333,.993-1.311,.13-2.054,.326-7.318,.259-7.842-.064-.528-.986-.198-1.642,.064-.66,.259-2.177,.79-2.833,.918-.66,.139-.528-.66-.495-1.578l.84-13.625c-.019-.337,.182-.925,1.233-.925,.304,0,.589-.015,.858,0,1.319,.071,1.186,.925,1.186,1.383,0,.461-.326,2.568-.458,3.625-.104,.809,.194,.982,.724,.914,.524-.063,.446-.24,.854-.914,.592-.994,1.78-1.219,2.174-1.256,.788-.068,.66,1.054,.66,1.054,0,1.514-.858,14.618-1.057,17.917ZM91.183,12.555s-1.313,20.019-1.491,23.007c-.882,14.479-2.198,22.998-2.46,24.146-.262,1.135,.177,1.045,1.054,1.045s7.283,.09,8.516,.09,1.17-.524,1.141-1.057c-.267-3.861,.003-6.84,.094-7.901,0,0,1.049-18.078,1.135-19.573,.082-1.496,.347-4.734,.7-4.922,.705-.345,5.71,3.951,8.25,6.151,2.554,2.196,5.983,6.229,6.417,6.76,.391,.472,.349,.523,.873,.087,.731-.611,5.53-4.479,6.59-5.618,.873-.792,.531-1.248-.267-2.028-6.938-6.664-16.773-14.036-17.649-14.569-.873-.521-1.799,.405-2.934,1.193-1.148,.791-.967-.401-.967-.84,0,0,.288-4.876,.347-6.008,.042-.839,.656-1.136,1.274-1.143,12.335-.094,21.594,.128,22.826,.217,1.231,.087,1.316-.524,1.399-1.143,0,0,1.233-7.728,1.408-8.865,.177-1.139,.09-1.229-.524-1.319-.618-.087-.967,.524-1.41,1.233-.538,.87-1.226,.967-2.106,.967,0,0-46.964-.094-49.424-.094s-4.302-.086-5.179-.172c-.878-.09-1.024,.45-1.141,1.229-.179,1.139-1.168,7.826-1.404,9.483-.09,.611,.201,.828,.637,.799,.637-.06,.884-.63,1.12-.975,.615-.922,1.488-1.312,3.418-1.402,0,0,18.089-.089,18.613-.089,1.231,0,1.144,.701,1.144,1.312Zm48.283-5.27c1.49-1.417,3.337-3.943,4.304-6.143,.158-.353,.352-1.222,1.316-1.135,1.226,.108,7.639,0,9.392,0,1.057,0,2.366,.251,1.406,1.323-.792,.87-1.092,1.15-.62,1.832,.62,.878,3.955,4.476,5.972,6.061,.75,.582,1.233,.701,1.495-.176,.259-.877,.964-2.979,1.054-5.262,.01-.356-.177-1.413,1.049-1.413h8.609c.349,0,.349,.094,.436-.607,.09-.708-.087-1.41,1.319-1.41h6.757c1.583,0,2.606-.202,2.681,.307,.135,.878,0,.878-.705,1.23-.708,.356-1.181,.573-1.181,1.536s-.443,5.794-.443,5.794c0,.615,.177,1.088,1.231,1.14,.79,.03,5.528,.184,5.974,.184,.611,0,1.62,0,1.931-.622,.385-.787,1.97-1.754,1.663-.266-.359,1.754-1.404,7.553-1.491,8.25-.083,.701-.349,1.241-1.316,1.143-.967-.086-6.937-.345-7.814-.345s-.941,.266-1.054,.877c-.181,.967-.356,2.366-.443,3.774-.023,.364-.082,1.143,.795,1.229,.873,.082,5.97,.082,7.114,.082,1.135,0,1.926-.082,2.545-.786,.611-.701,1.837-1.578,1.488,.266-.352,1.852-1.229,7.193-1.399,8.074-.182,.886-.404,1.052-1.498,.97-.795-.064-6.144-.262-7.111-.262s-1.847,.087-1.582,1.316c.267,1.226,1.361,10.837,8.783,16.061,1.181,.835,1.578,.884,.521,2.019-1.054,1.144-3.243,4.653-4.123,7.028-.172,.472-.255,1.576-1.668,.354-1.401-1.233-6.675-5.274-9.474-14.319-.196-.587-.62-2.012-1.677-.257-.936,1.569-4.471,8.868-14.215,14.479-.62,.354-1.41,.799-1.852-.346-.436-1.144-1.313-3.689-1.75-4.217-.439-.524-1.002-.99-1.189-.259-.175,.693-.127,.967-1.271,1.135-1.139,.184-7.642,1.495-11.064,1.84-3.422,.356-6.934,.974-8.16,1.144-1.226,.181-1.582,.483-1.757,.965-.174,.484-.304,.969-.75,1.031-.288,.049-.543-.194-.656-1.198-.262-2.373-.175-7.906-.175-8.427,0-.531-.259-1.24,1.052-1.24,1.319,0,5.886-.345,6.59-.427,.7-.097,1.316-.097,1.404-1.594,.083-1.488,.96-11.672,1.047-12.283,.09-.611,.528-1.759-1.135-1.844-1.668-.087-3.78,0-4.394,0s-1.491,.266-2.019,.521c-.53,.269-.743,1.274-.219,1.274,.53,0,2.988-.057,3.599-.078,1.012-.049,1.495-.316,1.717,1.349,.194,1.498,.434,6.417,.434,9.573,0,.53,.087,1.404-1.229,1.488-1.316,.09-2.898,.181-3.774,.181s-1.406,.184-1.406-1.403c0-1.578,.222-5.139-.259-9.042-.276-2.243,.776-1.906,0-2.194-.838-.309-.528-1.148-.266-2.288,.266-1.142,.88-5.793,1.057-6.584,.172-.787,.085-1.402,1.578-1.23,1.847,.226,4.738,.36,5.618,.36s1.403-.094,1.582-1.405c.169-1.323,0-1.675-1.233-1.675s-1.616,.202-1.755,.618c-.22,.66-.347,.791-.962,.791-.62,0-.597-.419-.533-1.143,.135-1.375,.795-3.205-.964-1.971-1.754,1.222-2.297,2.141-2.368,.207-.09-2.407-.618-4.817-1.148-6.219-.446-1.218-.964-1.844,.184-2.466,1.139-.611,4.295-3.242,6.405-5.27Zm5.533,7.688c.457,.071,5.795,.127,6.653,.127s1.069-.611,.588-1.248c-.285-.375-1.649-1.979-2.635-3.49-.984-1.507-1.576-.783-1.906-.326-.33,.461-2.163,2.931-2.917,3.753-.795,.862-.243,1.113,.217,1.184Zm26.422-6.496c-.255,1.038-.151,1.623,.771,1.623,.915,0,1.118-.787,1.18-1.319,.071-.529,.33-3.089,.33-3.816,0-.723,0-1.053-.46-1.053-.457,0-.873,.476-1.028,1.233-.243,1.159-.486,2.084-.793,3.333Zm-5.222,15.784c.529,.06,3.163,.254,4.082,.191,.922-.063,1.255-.652,1.387-1.181,.132-.532,.524-2.834,.588-3.688,.068-.854-.333-.918-.922-.99-.42-.049-1.87,.071-2.681,.097-.566,.016-.663,.27-.761,.465-.573,1.087-1.957,3.519-2.358,4.314-.326,.652,.139,.726,.663,.791Zm-10.274-2.313c-.134,1.143-.899,.918-1.356,.918-.465,0-2.061-.086-3.321-.055-1.031,.018-.951,.652-.983,1.386-.049,1.222,.061,1.313,.856,1.439,.79,.132,1.974,.195,3.294,.195,1.313,0,1.646-.195,2.104-.716,.463-.529,.99-.918,1.45-.794,.462,.131,.33,.663,.2,1.447-.129,.794-.99,6.195-1.118,7.176-.135,.99-.799,.99-1.514,.99-.731,0-3.764-.063-5.21-.063s-1.113,1.049-1.184,1.514c-.061,.465-.851,10.858-.918,11.92-.064,1.052,.531,.917,1.052,.851,.529-.064,3.757-.66,4.806-.92,1.061-.264,1.184,.458,1.184,.729v1.116c0,1.057,.788,.783,1.254,.533,8.099-4.483,11.877-13.524,12.51-15.413,.446-1.313-.262-1.319-.79-1.379-.526-.079-5.922-.207-7.047-.135-.922,.057-1.05,.393-1.38,.855-.325,.458-.925,.922-1.252,.851-.33-.062-.46-.656-.392-1.045,.063-.403,1.247-7.579,1.446-8.565,.198-.982,1.184-.97,1.708-.915,.62,.064,.953-.082,.665-.798-.724-1.769-2.632-3.291-3.557-4.146-.922-.858-.346-1.08-.064-1.45,1.511-2.039,2.698-4.569,3.224-5.6,.446-.854,.262-.652,0-.918-.267-.266-.436-.023-.837,.469-.854,1.038-2.785,3.227-3.245,3.879-.458,.66-.526,.851-.653,1.507-.139,.663-.795,3.95-.931,5.139Zm-6.585,22.714c-.321,1.128,.139,1.385,.596,1.45,.462,.071,2.573,.33,3.819,.595,1.254,.264,1.387-.392,1.51-.922,.139-.528,1.717-6.259,1.979-6.983,.264-.717,.326-.918,1.254-1.714,.917-.783-.132-1.181-.656-1.24-.533-.071-3.891-.337-5.207-.465-1.319-.132-1.332,.569-1.578,2.043-.528,3.05-.877,4.363-1.717,7.234Zm53.337-28.678c.705,0,1.844,.089,2.28,.089,.446,0,1.233-.089,1.319-1.499,.09-1.398,.79-12.639,.79-13.167,0-.522-.09-1.319,1.054-1.319,1.135,0,8.163,.026,8.516,0,.967-.042,1.753,.442,.708,1.319-1.061,.877-1.413,1.142-1.585,2.109-.177,.967-.877,10.971-.877,11.582,0,.618,0,.974,.7,.974,1.186,0,1.403,0,2.111-.885,.273-.341,1.181-1.049,1.663-.615,.372,.341,.582,.952,.878,.353,.347-.705,1.056-1.406,2.552-1.484,.967-.067,.873-.532,.958-.798,.094-.259-.04-.525-.741-.525-.708,0-2.021-.045-2.639-.045-.615,0-1.184,.225-1.533,.57-.353,.356-.528,1.053-1.229,1.053s-.54,0-.346-1.312c.255-1.803,.964-6.061,1.047-6.852,.085-.787,.352-1.406,1.578-1.234,1.229,.183,9.399,.446,13.609,.532,.701,.011,1.753,0,1.844-1.237,.087-1.226,.087-1.312,.087-1.832,0-.532-.177-1.586,1.323-1.499,1.488,.089,6.847,0,7.636,0s2.109,.089,1.226,1.143c-.878,1.056-1.49,.442-1.578,1.491-.129,1.51-.09,1.937,1.052,2.02,1.323,.094,2.193,0,2.722,0,.524,0,1.319-.172,1.052-1.323-.262-1.132-.337-1.207-.441-1.66-.129-.607-.304-.967,.708-1.05,1.226-.108,4.741-.356,5.441-.356,.705,0,1.313,0,1.668,1.053,.352,1.057,.529,1.578,.877,2.369,.162,.36,.262,.967,.792,.967s1.75,.094,2.458-.701c.701-.791,.701-.877,1.226-.791,.53,.089,.398,.524,.181,1.886-.116,.715-.97,5.753-1.05,6.364-.097,.615,.08,1.057-1.142,.877-1.233-.168-3.955-.345-4.476-.345-.292,0-.918,.049-1.102,.217-.161,.139,.064,.372,.304,.574,.533,.442,3.26,2.241,3.738,2.582,.66,.49,.809,.731,.304,1.368-.705,.877-.878,1.402-.878,2.455s-1.142,16.596-1.142,17.032c0,.352-.259,.877-.788,.877-.831,0-1.359-.09-1.885-.09-.793,0-1.094,.18-1.094,.611,0,.446-.353,1.142,.96,1.233,1.319,.09,2.807,.177,3.418-.175,.622-.352,1.41-1.668,2.109-1.578,.708,.09,.443,.792,.352,1.488-.087,.705-1.052,6.682-1.139,7.293-.09,.611-.181,1.139-1.323,1.054-1.132-.089-3.333-.24-4.042-.314-.962-.083-1.311,.66-1.398,1.724-.266,3.241-.353,7.283-1.844,9.033-1.087,1.278-2.111,2.726-11.413,2.983-.524,.016-1.135-.09-1.316-1.222-.172-1.142-1.229-5.007-1.672-5.974-.434-.967-.434-1.844,.877-1.754,1.319,.089,3.955,.089,4.653,0,.708-.09,1.844-.611,1.938-1.845,.082-1.221,.082-1.396,.082-1.844,0-.441-.175-1.139-1.398-1.139-1.233,0-9.561,.087-10.191,.087-.604,0-1.665,0-1.135,1.226,.531,1.229,2.462,6.679,2.721,7.29,.266,.611,.177,1.054-.531,1.311-.698,.267-5.616,1.538-6.486,1.804-.887,.262-1.33,.233-1.537-.569-.839-3.25-2.51-7.554-2.691-8.165-.168-.618-.434-1.181,.443-1.444,.701-.212,2.021-.484,2.642-.653,.611-.188,1.142-.886,0-.886h-6.682c-.523,0-1.488,.264-1.924,.964-.443,.7-.356,.799-1.057,.799s-.964,.078-.705-1.325c.267-1.404,1.208-6.764,1.319-7.378,.177-.915,.129-1.18,1.49-1.139,1.858,.063,24.235,.175,25.108,.175,.882,0,1.316-.175,1.316-.96,0-.795-.434-.877-1.222-.877s-23.002-.184-23.616-.266c-.611-.087-.62-.18-.529-.964,.967-8.25,1.319-15.978,1.319-16.777,0-.878,.083-1.046-.266-1.046s-.349,.521-.436,1.046c-.089,.532-.618,4.397-.884,5.097-.259,.701-.349,.619-.96,.619h-2.019c-.443,0-.788,.259-.879,1.312-.085,1.053-1.844,24.313-1.844,25.022,0,.702-.352,6.665-.352,7.632,0,.976,.304,1.753-1.311,1.753h-7.295c-.434,0-.964,.267-.7-1.576,.266-1.84,2.278-20.627,2.901-32.572,.023-.443,.255-1.402-.623-1.488-.877-.082-2.455-.263-2.889,.353-.443,.618-.53,.967-1.229,.967-.708,0-.62-.533-.436-1.319,.169-.791,1.207-7.291,1.313-7.818,.172-.878,.353-1.046,1.139-1.046Zm25.285,5.442c0,.702,.262,.878,1.144,.878h4.127c.96,0,.96-.615,.96-1.143,0-.532-.26-.787-.96-.787s-3.163,.082-4.217,.082c-.708,0-1.054,.266-1.054,.97Zm14.656,.087c0,.7,.139,.839,1.142,.88,.533,.023,3.165,0,4.13,0s.964-.622,.964-1.154c0-.518-.262-.784-.964-.784s-3.163,.094-4.212,.094c-.705,0-1.061,.259-1.061,.964Zm-15.266,7.728c-.05,.828,.302,.878,1.132,.878h4.13c.958,0,1.052-.443,1.101-1.143,.042-.66-.401-.791-1.101-.791s-3.165,.089-4.21,.089c-.708,0-1.023,.259-1.052,.967Zm14.564,.169c-.026,.708,.623,.885,1.144,.885h4.13c.967,0,.967-.619,.967-1.148,0-.524-.267-.791-.967-.791h-4.13c-.702,0-1.099,.097-1.144,1.054Zm-16.5-16.676c0,.521,1.403,1.054,2.021,1.054h6.054c.877,0,1.142-.267,1.142-.878s-.441-.7-1.052-.7c-.615,0-6.627-.09-7.422-.09-.436,0-.743,.09-.743,.615Zm17.91,.345c0,.533,.266,.885,.877,.885,.622,0,5.964,.082,7.196,.082,1.222,0,1.672-.967,1.672-1.401s-.705-.353-1.146-.353h-7.632c-.533,0-.967,.262-.967,.786Zm49.776,19.326c1.319-.967,8.601-6.77,12.028-14.498,.382-.858,.702-1.833-.439-1.833s-1.491,.079-2.11,.957c-.611,.877-4.731,6.24-6.849,7.736-.453,.322-.7,.61-1.135-.352-.443-.967-1.495-2.725-2.019-3.254-.53-.532-1.144-1.14-2.722-1.14s-2.021,.173-2.021,1.14-.175,5.008-.175,5.529c0,.524-.087,1.143,.967,.791,1.054-.349,1.754-.611,2.455-1.046,.708-.435,1.142-.799,1.142,.255s-.266,5.007-.266,5.352c0,.364,.177,1.065,1.144,.364Zm-14.045-21.605c0,.701,.177,.701,.611,.701,.443,0,.533-.345,.533-.787,0-.435,.198-2.417,.214-2.77,.049-.66,.217-1.087-.304-1.087-.611,0-.66,.168-.75,1.053-.078,.783-.304,2.189-.304,2.89Zm-10.007,13.082c2.278-6.143,3.283-14.401,3.332-17.991,.012-.619,.266-1.057,.967-1.057s5.618,.086,6.061,.086c.436,0,.96,0,1.139-.791,.174-.786,.262-2.458,.262-2.897,0-.443-.043-1.143,1.182-1.143h7.776c.611,0,.875,.089,.875,.442,0,.356-.174,.525-.701,.878-.53,.356-1.05,.7-1.05,1.753s-.356,7.118-.356,7.463c0,.356-.087,1.054,.792,1.054s2.371,.266,3.073-.964c.217-.378,.533-.791,.967-.701,.439,.087,.498,.33,.439,1.23-.045,.701-.045,.832-.087,1.668-.042,.828,.521,.739,1.578-.618,.835-1.083,3.865-5.266,5.262-10.963,.09-.36,.266-1.241,1.323-1.241s8.476-.082,9.705-.042c.615,.026,1.049-.086,1.004,.574-.029,.435-.262,.708-1.061,.877-.78,.173-1.045,.569-1.311,1.319-.33,.941-.964,3.332-1.144,3.857-.175,.529,0,.708,.701,.795,.708,.082,11.326-.064,12.115,0,1.101,.082,1.851-.304,2.375-.747,.529-.446,.698-.742,1.406-.138,.701,.618,3.509,3.073,3.858,3.339,.356,.266,.531,.524,.089,1.057-.434,.522-.967,1.049-1.139,2.983-.181,1.935-1.406,31.167-6.847,42.23-.423,.847-2.014,4.915-12.201,4.382-.967-.049-1.233-.167-1.311-1.045-.099-.885-.219-5.507-1.064-6.766q-.514-.786-.345-1.229c.175-.436,.505-.436,1.753-.436h3.689c.705,0,2.983,.436,5.085-9.134,.226-.996,2.028-8.95,1.41-9.303-.611-.351-1.668,2.02-2.545,3.426-.877,1.403-8.082,14.66-21.417,23-.375,.231-.967,.785-1.41-.53-.443-1.316-2.72-5.533-3.509-6.582-.602-.795-1.055-1.139-.089-1.672,.964-.526,17.814-7.807,27.035-32.568,.405-1.061,.524-1.665-.175-1.665s-1.319-.175-1.755,.701c-.443,.877-6.762,17.287-21.851,27.036-.406,.257-.799,.434-1.144-.611-.356-1.059-2.319-5.073-2.721-5.618-.533-.71-.62-.878-1.496-.358-.651,.385-.615,.267-.79,1.668-.177,1.408-1.054,19.846-1.054,20.281s.259,1.401-.967,1.401-6.319-.09-6.93-.09c-1.229,0-1.229-.7-1.052-1.396,.168-.701,1.052-8.783,1.401-16.332,.016-.436,0-1.313-.967-.967-.967,.351-4.13,1.495-4.832,1.753-.696,.267-1.361,.491-1.665,1.538-.224,.757-1.457,1.457-1.576-.045-.226-2.715-.478-3.767-1.054-8.599-.132-1.095-.285-1.507,.873-1.717,2.852-.521,7.898-1.979,8.519-2.227,.611-.273,1.349-.315,1.488-1.679,.154-1.575,.533-8.779,.533-9.39,0-.618,.082-1.143-.708-1.143-1.095,0-1.009,.09-1.184,.787-.177,.702-1.095,5.008-2.063,7.463-.217,.548-.352,.975-1.319,.266-.967-.701-3.95-2.463-4.561-2.8-.615-.364-1.226-.45-.615-2.117m124.132,36.791c-1.226,0-5.618-.097-6.319-.097-.708,0-1.094,.17-.967-.701,.179-1.229,.259-1.58-.698-1.58h-10.715c-.698,0-1.238,.351-1.313,.795-.175,1.052,0,1.396-1.057,1.396h-6.844c-.446,0-1.057,.188-.79-1.22,.266-1.41,2.455-22.208,2.986-36.613,.023-.873-.097-1.139-.88-1.139-.88,0-1.233,.089-1.497-.353-.266-.438-.441-.611-.703-.259-.259,.338-.349,1.046-.349,1.578,0,.524-1.054,17.998-1.054,18.519,0,.524,.087,1.142-.7,1.142-.795,0-1.271,.042-1.271,.042,0,0-.75-.217-.307,.837,.434,1.052,2.63,10.712,2.896,13.434,.057,.615,0,.965-.708,1.139-.7,.172-6.139,1.316-6.84,1.406-.708,.09-.974,0-1.057-.705-.085-.701-.182-1.139-.399-2.059-.148-.625-.394-.569-1.271-.311-.878,.269-12.733,3.311-13.337,3.516-.266,.09-1.057,.345-1.847,1.403-.229,.314-1.238,1.052-1.406-.358-.175-1.396-.708-8.423-.708-8.859s-.168-1.319,.877-1.234c1.064,.09,1.585,0,2.028-.085,.436-.09,.967,.085,1.135-1.747,.184-1.852,1.846-27.575,1.846-27.838,0-.266,.085-1.406-.608-1.049-.705,.348-1.061,.61-1.238-.525-.168-1.143-.918-3.905-1.488-5.705-.392-1.248-.611-1.852,.443-2.286,1.045-.442,8.16-4.299,10.795-10.101,.472-1.038,.615-.878,1.663-.878,.708,0,7.115-.089,7.729-.089s1.672,.176,.529,1.93c0,0,1.314,2.021,4.13,4.049,.349,.251,1.352,1.049,2.413,.299,1.233-.87,2.93-1.799,3.38-2.065,.436-.262,1.137-.517,1.571-.082,.443,.442,.521,.794,1.319,.794h3.861c.88,0,1.401-.18,1.498-1.319,.064-.877,.083-2.023,.083-2.364,0-.36,.087-1.064,.963-1.064h8.781c.877,0,1.627-.049,1.5,.524-.125,.514-.181,.881-.705,.975-.533,.086-1.148,.607-1.238,1.488-.078,.877,0,1.844,.885,1.844,.877,0,3.687,.087,4.208,.087,.533,0,1.323-.263,1.759-.698,.443-.445,.795-.622,1.319-.183,.521,.446,2.897,1.938,3.422,2.283,.528,.363,1.582,.798,.873,1.495-.698,.702-.873,1.057-.964,2.283-.082,1.229-.701,9.127-.701,9.746,0,.615-.257,1.132-1.052,1.132s-2.103-.169-2.201,1.064c-.082,1.233-.828,10.97-.786,11.589,.09,1.311-.168,1.045-1.313,1.045-1.052,0-15.54-.078-16.245-.078-1.318,0-1.84,.344-1.84,1.488s.219,1.488,1.578,1.488h12.201c.528,0,1.675,0,2.377-.698,.393-.396,.78-.7,1.663-.179,.877,.533,3.163,2.11,3.687,2.467,.523,.351,.698,.696,.274,1.132-.453,.441-.799,.965-.889,2.285-.085,1.319-1.142,16.597-1.142,16.597,0,.434,.09,1.233-1.229,1.233Zm-44.906-45.791c-.964,.787,.482,.75,1.359,.75s.795-.791,.795-1.668c0-.885-.304-.618-.929-.086,0,0-.26,.218-1.226,1.004Zm6.76-4.209c1.844,0,2.07-.311,.84-1.536-1.233-1.226-1.429-.555-2.07,.217-.783,.957-.877,1.319,1.229,1.319Zm5.226,5.045c.528,0,.79,.09,1.226-.352,.45-.438,1.847,.878,2.814,1.586,.967,.701,1.313,0,1.403-.708,.085-.701,.352-3.066,.262-4.299-.087-1.229-.788-.521-1.054-.086-.266,.442-.577,.933-1.045,1.84-.533,1.016-1.102,.574-1.458,.398-.346-.181-1.005-.653-2.057-1.274-1.057-.611-1.05,.442-1.144,1.225-.169,1.496,.529,1.672,1.054,1.672Zm-10.271,8.696c-.09,.873,.174,.873,.878,.963,.7,.082,3.597,.082,4.299,.082,.708,0,.964-.434,.964-1.225s-.436-.698-.877-.787c-.443-.09-3.16-.049-4.3-.049-.443,0-.877,.138-.964,1.016Zm-.531,8.778c-.08,.87,.175,.87,.884,.967,.702,.087,3.599,.087,4.3,.087s.965-.439,.965-1.229c0-.795-.441-.705-.877-.795-.441-.09-3.254-.042-4.389-.042-.443,0-.786,.132-.884,1.012Zm-.879,10.184c-.085,.436-.168,2.807-.168,4.04,0,1.222,.436,1.222,.967,1.144,.521-.099,1.399-.359,2.632-.708,1.222-.356,1.049-.88,.964-1.319-.087-.436-.18-.79-.443-1.578-.255-.792,.356-.882,1.233-1.057,.878-.175,2.554-.521,4.828-.964,1.781-.337,1.057-.792-.087-.792-.708,0-7.552-.085-8.691,0-1.144,.09-1.144,.792-1.234,1.234Zm26.691-26.601h12.991c1.497,0,1.41-.622,1.585-1.499,.17-.878-.175-1.23-1.408-1.23h-12.991c-1.319,0-1.278,.627-1.406,1.496-.082,.611,.087,1.233,1.229,1.233Zm1.41,10.27h8.25c.964,0,.885-.356,1.142-1.496,.267-1.135-.79-1.229-1.233-1.229-.438,0-6.672,.094-8.08,.094s-1.286,.529-1.49,1.405c-.266,1.143,.533,1.226,1.41,1.226Zm-1.41,22.912h10.271c.974,0,1.142-.177,1.491-2.106,.353-1.934-.438-1.846-1.401-1.846h-10.009c-1.229,0-1.472,.358-1.663,1.93-.266,2.104,.082,2.021,1.311,2.021Z"/>
    </g>
  </g>
</svg>