<svg width="93" height="58" viewBox="0 0 93 58" fill="none" xmlns="http://www.w3.org/2000/svg">
<path fill-rule="evenodd" clip-rule="evenodd" d="M0.231201 34.2985L25.8822 8.63463C31.0812 3.42901 38.2748 0.204956 46.2158 0.183533C54.0654 0.167467 61.1892 3.28441 66.399 8.35079C69.4259 11.2964 71.8023 14.9007 73.297 18.9334L60.3666 18.8798C59.7483 18.0122 59.0494 17.2089 58.2859 16.4752C55.1676 13.4761 50.9202 11.6338 46.2427 11.6445C41.4738 11.6552 37.1512 13.5939 34.0328 16.7162C33.3984 17.3535 32.8124 18.0337 32.2855 18.762C31.436 19.9295 30.7263 21.2042 30.1887 22.5698L92.9317 22.8323L66.6839 49.096C61.4849 54.3016 54.2912 57.5257 46.3503 57.5471C38.3071 57.5632 31.022 54.2909 25.7854 48.9942C22.8337 46.0112 20.5326 42.3908 19.1132 38.3581L31.8984 38.4116C32.4898 39.2953 33.1619 40.1147 33.8984 40.8752C37.049 44.0993 41.4523 46.0969 46.3234 46.0862C51.0923 46.0755 55.4149 44.1367 58.5333 41.0144C59.2913 40.2539 59.9795 39.4238 60.5871 38.5348C61.4204 37.3137 62.1032 35.9802 62.6032 34.561L0.231201 34.2985Z" fill="#DBDBDB"/>
</svg>
